 <svg xmlns="http://www.w3.org/2000/svg" xmlns:xlink="http://www.w3.org/1999/xlink" viewBox="0 0 500 500" width="500" height="500" preserveAspectRatio="xMidYMid meet" style="width: 100%; height: 100%; transform: translate3d(0px, 0px, 0px); content-visibility: visible;"><defs><clipPath id="__lottie_element_1158"><rect width="500" height="500" x="0" y="0"></rect></clipPath></defs><g clip-path="url(#__lottie_element_1158)"><g transform="matrix(1.0008059740066528,0,0,1.0008059740066528,250,250)" opacity="1" style="display: block;"><g opacity="1" transform="matrix(1,0,0,1,0,0)"><path fill="rgb(239,243,255)" fill-opacity="1" d=" M0,-160.94400024414062 C88.82499694824219,-160.94400024414062 160.94400024414062,-88.82499694824219 160.94400024414062,0 C160.94400024414062,88.82499694824219 88.82499694824219,160.94400024414062 0,160.94400024414062 C-88.82499694824219,160.94400024414062 -160.94400024414062,88.82499694824219 -160.94400024414062,0 C-160.94400024414062,-88.82499694824219 -88.82499694824219,-160.94400024414062 0,-160.94400024414062z"></path></g></g><g transform="matrix(1.0017966032028198,0,0,1.0017966032028198,215.01124572753906,322.33416748046875)" opacity="1" style="display: block;"><g opacity="1" transform="matrix(1,0,0,1,0,0)"><path fill="rgb(84,111,254)" fill-opacity="1" d=" M46.02899932861328,-36.21699905395508 C46.02899932861328,-36.21699905395508 33.84199905395508,-13.432000160217285 33.84199905395508,-13.432000160217285 C33.84199905395508,-13.432000160217285 30.7450008392334,-7.658999919891357 30.7450008392334,-7.658999919891357 C30.7450008392334,-7.658999919891357 29.073999404907227,-4.5289998054504395 29.073999404907227,-4.5289998054504395 C29.073999404907227,-4.5289998054504395 22.47800064086914,7.807000160217285 22.47800064086914,7.807000160217285 C22.47800064086914,7.807000160217285 19.849000930786133,12.722999572753906 19.849000930786133,12.722999572753906 C19.849000930786133,12.722999572753906 -3.184999942779541,55.78300094604492 -3.184999942779541,55.78300094604492 C-4.355000019073486,57.96699905395508 -6.244999885559082,57.95000076293945 -7.381999969482422,55.74599838256836 C-7.381999969482422,55.74599838256836 -16.165000915527344,38.71799850463867 -16.165000915527344,38.71799850463867 C-17.302000045776367,36.513999938964844 -20.2549991607666,34.66899871826172 -22.739999771118164,34.63199996948242 C-22.739999771118164,34.63199996948242 -43.30500030517578,34.263999938964844 -43.30500030517578,34.263999938964844 C-45.77799987792969,34.222999572753906 -46.749000549316406,32.45199966430664 -45.45500183105469,30.334999084472656 C-45.45500183105469,30.334999084472656 -21.639999389648438,-8.593999862670898 -21.639999389648438,-8.593999862670898 C-21.639999389648438,-8.593999862670898 -19.923999786376953,-11.39799976348877 -19.923999786376953,-11.39799976348877 C-19.923999786376953,-11.39799976348877 -19.923999786376953,-11.402000427246094 -19.923999786376953,-11.402000427246094 C-19.923999786376953,-11.402000427246094 -11.640999794006348,-24.94099998474121 -11.640999794006348,-24.94099998474121 C-11.640999794006348,-24.94099998474121 -10.243000030517578,-27.235000610351562 -10.243000030517578,-27.235000610351562 C-10.243000030517578,-27.235000610351562 8.220000267028809,-57.40999984741211 8.220000267028809,-57.40999984741211 C8.220000267028809,-57.40999984741211 34.35900115966797,-42.75899887084961 34.35900115966797,-42.75899887084961 C34.35900115966797,-42.75899887084961 46.02899932861328,-36.21699905395508 46.02899932861328,-36.21699905395508z"></path></g></g><g transform="matrix(1.0017966032028198,0,0,1.0017966032028198,282.3880920410156,323.4792175292969)" opacity="1" style="display: block;"><g opacity="1" transform="matrix(1,0,0,1,0,0)"><path fill="rgb(84,111,254)" fill-opacity="1" d=" M41.98400115966797,35.83399963378906 C41.98400115966797,35.83399963378906 21.420000076293945,35.465999603271484 21.420000076293945,35.465999603271484 C18.934999465942383,35.42499923706055 15.920000076293945,37.15299987792969 14.704000473022461,39.316001892089844 C14.704000473022461,39.316001892089844 5.316999912261963,56.03099822998047 5.316999912261963,56.03099822998047 C4.10099983215332,58.19300079345703 2.2200000286102295,58.13999938964844 1.128000020980835,55.90700149536133 C1.128000020980835,55.90700149536133 -20.34600067138672,12.10200023651123 -20.34600067138672,12.10200023651123 C-20.34600067138672,12.10200023651123 -22.86400032043457,6.958000183105469 -22.86400032043457,6.958000183105469 C-22.86400032043457,6.958000183105469 -28.417999267578125,-4.363999843597412 -28.417999267578125,-4.363999843597412 C-28.417999267578125,-4.363999843597412 -30.08799934387207,-7.788000106811523 -30.08799934387207,-7.788000106811523 C-30.08799934387207,-7.788000106811523 -33.41299819946289,-14.574000358581543 -33.41299819946289,-14.574000358581543 C-33.41299819946289,-14.574000358581543 -44.78499984741211,-37.777000427246094 -44.78499984741211,-37.777000427246094 C-44.78499984741211,-37.777000427246094 -32.89699935913086,-43.9010009765625 -32.89699935913086,-43.9010009765625 C-32.89699935913086,-43.9010009765625 -6.252999782562256,-57.61800003051758 -6.252999782562256,-57.61800003051758 C-6.252999782562256,-57.61800003051758 12.682000160217285,-24.035999298095703 12.682000160217285,-24.035999298095703 C12.682000160217285,-24.035999298095703 14.029999732971191,-21.658000946044922 14.029999732971191,-21.658000946044922 C14.029999732971191,-21.658000946044922 20.142000198364258,-10.810999870300293 20.142000198364258,-10.810999870300293 C20.142000198364258,-10.810999870300293 21.899999618530273,-7.697000026702881 21.899999618530273,-7.697000026702881 C21.899999618530273,-7.697000026702881 21.90399932861328,-7.692999839782715 21.90399932861328,-7.692999839782715 C21.90399932861328,-7.692999839782715 44.275001525878906,31.983999252319336 44.275001525878906,31.983999252319336 C45.49100112915039,34.14699935913086 44.457000732421875,35.87900161743164 41.98400115966797,35.83399963378906z"></path></g></g><g transform="matrix(1.0015300512313843,0,0,1.0015300512313843,249.9949951171875,242.76400756835938)" opacity="1" style="display: block;"><g opacity="1" transform="matrix(1,0,0,1,0,0)"><path fill="rgb(203,214,255)" fill-opacity="1" d=" M80.4000015258789,23.084999084472656 C79.65699768066406,25.68400001525879 79.76100158691406,28.650999069213867 80.0479965209961,31.684999465942383 C80.43099975585938,35.816001892089844 81.15899658203125,40.064998626708984 80.56300354003906,43.71699905395508 C80.34100341796875,45.13100051879883 79.91600036621094,46.441001892089844 79.20899963378906,47.625999450683594 C75.23200225830078,54.23899841308594 63.59000015258789,54.84299850463867 58.06700134277344,60.16699981689453 C55.61600112915039,62.53799819946289 54.05500030517578,66.15299987792969 52.479000091552734,69.76100158691406 C50.512001037597656,74.2760009765625 48.53200149536133,78.76699829101562 44.79100036621094,80.85099792480469 C38.141998291015625,84.54000091552734 27.767000198364258,79.28199768066406 20.219999313354492,81.16799926757812 C16.55299949645996,82.072998046875 13.04800033569336,84.93000030517578 9.468999862670898,87.52899932861328 C5.920000076293945,90.12899780273438 2.2890000343322754,92.46199798583984 -1.6360000371932983,92.39600372314453 C-5.521999835968018,92.322998046875 -9.027999877929688,89.92400360107422 -12.437999725341797,87.23500061035156 C-15.96399974822998,84.48200225830078 -19.402000427246094,81.43099975585938 -23.07699966430664,80.38700103759766 C-30.565000534057617,78.24299621582031 -41.111000061035156,83.13300323486328 -47.619998931884766,79.20800018310547 C-51.24300003051758,77.02999877929688 -53.06100082397461,72.53800201416016 -54.84299850463867,68.03199768066406 C-56.314998626708984,64.2979965209961 -57.75899887084961,60.555999755859375 -60.15999984741211,58.06800079345703 C-65.48300170898438,52.553001403808594 -77.09500122070312,51.529998779296875 -80.85099792480469,44.78499984741211 C-81.37300109863281,43.834999084472656 -81.72699737548828,42.80500030517578 -81.92500305175781,41.707000732421875 C-82.72000122070312,37.5989990234375 -81.55799865722656,32.65700149536133 -80.99800109863281,27.95199966430664 C-80.68099975585938,25.226999282836914 -80.57099914550781,22.57699966430664 -81.1520004272461,20.20599937438965 C-82.677001953125,14.079999923706055 -89.6729965209961,8.380000114440918 -91.78600311279297,2.046999931335449 C-92.19000244140625,0.847000002861023 -92.41899871826172,-0.382999986410141 -92.39700317382812,-1.6419999599456787 C-92.25700378417969,-9.520999908447266 -82.45600128173828,-15.852999687194824 -80.38700103759766,-23.07699966430664 C-80.23999786376953,-23.591999053955078 -80.12200164794922,-24.136999130249023 -80.03299713134766,-24.68199920654297 C-79.4520034790039,-28.378999710083008 -80.17400360107422,-32.641998291015625 -80.56400299072266,-36.72100067138672 C-80.9540023803711,-40.75600051879883 -81.01200103759766,-44.62200164794922 -79.2020034790039,-47.63399887084961 C-75.22599792480469,-54.23899841308594 -63.57600021362305,-54.849998474121094 -58.060001373291016,-60.16600036621094 C-52.54499816894531,-65.48999786376953 -51.529998779296875,-77.11000061035156 -44.77799987792969,-80.8499984741211 C-38.12900161743164,-84.53900146484375 -27.76799964904785,-79.29000091552734 -20.204999923706055,-81.16000366210938 C-12.901000022888184,-82.97100067138672 -6.229000091552734,-92.53600311279297 1.6419999599456787,-92.39600372314453 C9.520999908447266,-92.25599670410156 15.852999687194824,-82.46299743652344 23.091999053955078,-80.38600158691406 C30.56599998474121,-78.24400329589844 41.11800003051758,-83.13200378417969 47.632999420166016,-79.20800018310547 C54.24700164794922,-75.2239990234375 54.85100173950195,-63.58300018310547 60.17399978637695,-58.06800079345703 C65.49099731445312,-52.54499816894531 77.10900115966797,-51.52899932861328 80.85099792480469,-44.79199981689453 C82.43299865722656,-41.935001373291016 82.3740005493164,-38.415000915527344 81.92500305175781,-34.71099853515625 C81.38700103759766,-30.049999237060547 80.23100280761719,-25.115999221801758 81.01100158691406,-20.94099998474121 C81.05599975585938,-20.697999954223633 81.10800170898438,-20.454999923706055 81.16699981689453,-20.211999893188477 C82.97799682617188,-12.907999992370605 92.53500366210938,-6.24399995803833 92.39600372314453,1.6419999599456787 C92.38099670410156,2.7679998874664307 92.16000366210938,3.865999937057495 91.78500366210938,4.934000015258789 C89.6050033569336,11.354000091552734 82.17500305175781,16.892000198364258 80.4000015258789,23.084999084472656z"></path></g></g><g transform="matrix(1.0017966032028198,0,0,1.0017966032028198,249.99899291992188,243.61399841308594)" opacity="1" style="display: block;"><g opacity="1" transform="matrix(1,0,0,1,0,0)"><path fill="rgb(255,255,255)" fill-opacity="1" d=" M64.4990005493164,0.2800000011920929 C64.49199676513672,0.1550000011920929 64.47000122070312,0.028999999165534973 64.447998046875,-0.0949999988079071 C64.44000244140625,-0.16200000047683716 64.43299865722656,-0.2290000021457672 64.41899871826172,-0.29499998688697815 C64.39600372314453,-0.4129999876022339 64.36699676513672,-0.531000018119812 64.33799743652344,-0.6480000019073486 C64.3219985961914,-0.7300000190734863 64.302001953125,-0.8100000023841858 64.27899932861328,-0.890999972820282 C64.24199676513672,-1.0460000038146973 64.1969985961914,-1.1929999589920044 64.14600372314453,-1.3480000495910645 C62.70199966430664,-5.809999942779541 57.76900100708008,-9.809000015258789 56.694000244140625,-14.116000175476074 C55.382999420166016,-19.395999908447266 59.05799865722656,-26.641000747680664 56.48099899291992,-31.288000106811523 C53.86000061035156,-36 45.744998931884766,-36.70600128173828 42.027000427246094,-40.55799865722656 C38.316001892089844,-44.41600036621094 37.88800048828125,-52.553001403808594 33.270999908447266,-55.32899856567383 C28.719999313354492,-58.07500076293945 21.350000381469727,-54.659000396728516 16.121999740600586,-56.15399932861328 C11.069999694824219,-57.60499954223633 6.6529998779296875,-64.44400024414062 1.1449999809265137,-64.54000091552734 C-4.355000019073486,-64.64299774169922 -9.017000198364258,-57.96500015258789 -14.119999885559082,-56.69900131225586 C-19.392000198364258,-55.380001068115234 -26.636999130249023,-59.05400085449219 -31.284000396728516,-56.47700119018555 C-35.99599838256836,-53.862998962402344 -36.71099853515625,-45.749000549316406 -40.5620002746582,-42.03099822998047 C-44.41299819946289,-38.3120002746582 -52.54899978637695,-37.88399887084961 -55.33300018310547,-33.275001525878906 C-55.840999603271484,-32.428001403808594 -56.143001556396484,-31.479999542236328 -56.297000885009766,-30.469999313354492 C-56.297000885009766,-30.46299934387207 -56.297000885009766,-30.461999893188477 -56.297000885009766,-30.454999923706055 C-56.30500030517578,-30.410999298095703 -56.3129997253418,-30.367000579833984 -56.31999969482422,-30.32200050354004 C-56.34199905395508,-30.131000518798828 -56.36399841308594,-29.933000564575195 -56.38600158691406,-29.740999221801758 C-56.38600158691406,-29.740999221801758 -56.38600158691406,-29.7189998626709 -56.38600158691406,-29.7189998626709 C-56.4010009765625,-29.506000518798828 -56.41600036621094,-29.29199981689453 -56.42300033569336,-29.070999145507812 C-56.43000030517578,-28.85700035095215 -56.4379997253418,-28.643999099731445 -56.4379997253418,-28.43000030517578 C-56.4379997253418,-28.159000396728516 -56.43000030517578,-27.878000259399414 -56.42300033569336,-27.606000900268555 C-56.39400100708008,-26.84000015258789 -56.32699966430664,-26.05900001525879 -56.24599838256836,-25.27199935913086 C-56.23899841308594,-25.197999954223633 -56.231998443603516,-25.124000549316406 -56.2239990234375,-25.058000564575195 C-56.20199966430664,-24.858999252319336 -56.18000030517578,-24.65999984741211 -56.15700149536133,-24.461000442504883 C-56.069000244140625,-23.650999069213867 -55.972999572753906,-22.834999084472656 -55.900001525878906,-22.031999588012695 C-55.900001525878906,-22.031999588012695 -55.900001525878906,-22.024999618530273 -55.900001525878906,-22.024999618530273 C-55.85599899291992,-21.516000747680664 -55.81100082397461,-21.006999969482422 -55.78900146484375,-20.506999969482422 C-55.78200149536133,-20.322999954223633 -55.775001525878906,-20.138999938964844 -55.766998291015625,-19.954999923706055 C-55.72999954223633,-18.60700035095215 -55.819000244140625,-17.319000244140625 -56.15700149536133,-16.134000778198242 C-56.194000244140625,-15.994000434875488 -56.23899841308594,-15.859999656677246 -56.28200149536133,-15.727999687194824 C-56.32699966430664,-15.595999717712402 -56.37900161743164,-15.456000328063965 -56.4379997253418,-15.322999954223633 C-56.48899841308594,-15.1899995803833 -56.54100036621094,-15.050000190734863 -56.606998443603516,-14.918000221252441 C-56.66600036621094,-14.78600025177002 -56.724998474121094,-14.652999877929688 -56.79800033569336,-14.520999908447266 C-56.8650016784668,-14.387999534606934 -56.930999755859375,-14.255000114440918 -57.00400161743164,-14.123000144958496 C-57.12900161743164,-13.880000114440918 -57.26900100708008,-13.644000053405762 -57.41699981689453,-13.407999992370605 C-58.65399932861328,-11.406000137329102 -60.428001403808594,-9.454999923706055 -61.89400100708008,-7.436999797821045 C-62.01100158691406,-7.2820000648498535 -62.12200164794922,-7.126999855041504 -62.224998474121094,-6.9730000495910645 C-62.87300109863281,-6.052000045776367 -63.446998596191406,-5.110000133514404 -63.85200119018555,-4.138000011444092 C-63.91899871826172,-3.999000072479248 -63.97700119018555,-3.8510000705718994 -64.03600311279297,-3.696000099182129 C-64.072998046875,-3.5929999351501465 -64.11100006103516,-3.4830000400543213 -64.14700317382812,-3.372999906539917 C-64.15399932861328,-3.3510000705718994 -64.16100311279297,-3.328000068664551 -64.16899871826172,-3.306999921798706 C-64.20500183105469,-3.2039999961853027 -64.23500061035156,-3.0920000076293945 -64.25700378417969,-2.989000082015991 C-64.29399871826172,-2.8940000534057617 -64.31600189208984,-2.805999994277954 -64.33100128173828,-2.7170000076293945 C-64.34500122070312,-2.6730000972747803 -64.36100006103516,-2.628999948501587 -64.36100006103516,-2.5850000381469727 C-64.39800262451172,-2.4519999027252197 -64.427001953125,-2.319000005722046 -64.447998046875,-2.187000036239624 C-64.47100067138672,-2.0320000648498535 -64.49299621582031,-1.8700000047683716 -64.50700378417969,-1.715999960899353 C-64.52899932861328,-1.524999976158142 -64.54499816894531,-1.340999960899353 -64.54499816894531,-1.1490000486373901 C-64.64099884033203,4.3520002365112305 -57.96099853515625,9.01200008392334 -56.69499969482422,14.114999771118164 C-56.650001525878906,14.277000427246094 -56.6150016784668,14.446999549865723 -56.59199905395508,14.616000175476074 C-56.584999084472656,14.645000457763672 -56.58399963378906,14.668000221252441 -56.57699966430664,14.697999954223633 C-56.57699966430664,14.697999954223633 -56.57699966430664,14.704999923706055 -56.57699966430664,14.704999923706055 C-56.54100036621094,14.87399959564209 -56.51100158691406,15.043000221252441 -56.49700164794922,15.220000267028809 C-56.46699905395508,15.390000343322754 -56.452999114990234,15.565999984741211 -56.44499969482422,15.743000030517578 C-56.42300033569336,15.920000076293945 -56.41600036621094,16.09600067138672 -56.41600036621094,16.273000717163086 C-56.39400100708008,16.743999481201172 -56.4010009765625,17.231000900268555 -56.43000030517578,17.716999053955078 C-56.43000030517578,17.716999053955078 -56.43000030517578,17.731000900268555 -56.43000030517578,17.731000900268555 C-56.44499969482422,18.040000915527344 -56.46699905395508,18.349000930786133 -56.49700164794922,18.658000946044922 C-56.49700164794922,18.658000946044922 -56.49700164794922,18.658000946044922 -56.49700164794922,18.666000366210938 C-56.5260009765625,18.975000381469727 -56.555999755859375,19.28499984741211 -56.599998474121094,19.601999282836914 C-56.630001068115234,19.888999938964844 -56.665000915527344,20.177000045776367 -56.70199966430664,20.464000701904297 C-56.715999603271484,20.530000686645508 -56.724998474121094,20.59600067138672 -56.731998443603516,20.66200065612793 C-56.880001068115234,21.722000122070312 -57.04899978637695,22.791000366210938 -57.180999755859375,23.8439998626709 C-57.202999114990234,24.020000457763672 -57.22600173950195,24.195999145507812 -57.24100112915039,24.381000518798828 C-57.29999923706055,24.83799934387207 -57.34299850463867,25.29400062561035 -57.37200164794922,25.743000030517578 C-57.430999755859375,26.56800079345703 -57.4379997253418,27.36199951171875 -57.37200164794922,28.128000259399414 C-57.37900161743164,28.136999130249023 -57.37900161743164,28.14299964904785 -57.37200164794922,28.14299964904785 C-57.26900100708008,29.268999099731445 -57.00400161743164,30.329999923706055 -56.4739990234375,31.280000686645508 C-56.231998443603516,31.72100067138672 -55.93600082397461,32.12699890136719 -55.60499954223633,32.50199890136719 C-54.94300079345703,33.2599983215332 -54.111000061035156,33.902000427246094 -53.18299865722656,34.46900177001953 C-52.93199920654297,34.62300109863281 -52.66699981689453,34.77000045776367 -52.402000427246094,34.91699981689453 C-52.027000427246094,35.13199996948242 -51.62900161743164,35.33000183105469 -51.2239990234375,35.520999908447266 C-50.8849983215332,35.691001892089844 -50.53900146484375,35.845001220703125 -50.19300079345703,36.00699996948242 C-49.49399948120117,36.32400131225586 -48.779998779296875,36.625 -48.073001861572266,36.94200134277344 C-47.542999267578125,37.17100143432617 -47.012001037597656,37.40599822998047 -46.49700164794922,37.650001525878906 C-45.98099899291992,37.893001556396484 -45.47999954223633,38.143001556396484 -44.99399948120117,38.40800094604492 C-43.861000061035156,39.0260009765625 -42.83700180053711,39.71900177001953 -42.027000427246094,40.564998626708984 C-38.30799865722656,44.41600036621094 -37.888999938964844,52.54600143432617 -33.27199935913086,55.32899856567383 C-28.72100067138672,58.06800079345703 -21.35099983215332,54.65999984741211 -16.12299919128418,56.15299987792969 C-14.635000228881836,56.58000183105469 -13.199000358581543,57.47200012207031 -11.777999877929688,58.525001525878906 C-11.60099983215332,58.65700149536133 -11.432000160217285,58.78200149536133 -11.262999534606934,58.91400146484375 C-11.050000190734863,59.07600021362305 -10.82800006866455,59.24599838256836 -10.614999771118164,59.41600036621094 C-10.166000366210938,59.768001556396484 -9.708999633789062,60.12900161743164 -9.260000228881836,60.4900016784668 C-8.958000183105469,60.73500061035156 -8.656000137329102,60.970001220703125 -8.347000122070312,61.20600128173828 C-7.589000225067139,61.79399871826172 -6.822000026702881,62.35300064086914 -6.041999816894531,62.8390007019043 C-4.480000019073486,63.81800079345703 -2.86899995803833,64.51000213623047 -1.1460000276565552,64.54000091552734 C4.355000019073486,64.63500213623047 9.015999794006348,57.95800018310547 14.118000030517578,56.691001892089844 C16.083999633789062,56.20500183105469 18.33099937438965,56.40399932861328 20.606000900268555,56.720001220703125 C21.01099967956543,56.77299880981445 21.42300033569336,56.83000183105469 21.82900047302246,56.88999938964844 C22.10099983215332,56.933998107910156 22.374000549316406,56.979000091552734 22.645999908447266,57.01499938964844 C25.38599967956543,57.41299819946289 28.072999954223633,57.71500015258789 30.297000885009766,56.91999816894531 C30.635000228881836,56.801998138427734 30.966999053955078,56.654998779296875 31.284000396728516,56.47800064086914 C31.43000030517578,56.395999908447266 31.56999969482422,56.30799865722656 31.709999084472656,56.21200180053711 C31.98900032043457,56.02799987792969 32.25600051879883,55.82899856567383 32.50600051879883,55.60100173950195 C36.15700149536133,52.375999450683594 37.06999969482422,45.40299987792969 40.560001373291016,42.029998779296875 C43.09299850463867,39.59299850463867 47.46099853515625,38.56999969482422 50.95100021362305,36.84700012207031 C51.12699890136719,36.76499938964844 51.290000915527344,36.676998138427734 51.45199966430664,36.595001220703125 C52.42300033569336,36.0880012512207 53.314998626708984,35.513999938964844 54.05799865722656,34.821998596191406 C54.551998138427734,34.356998443603516 54.98500061035156,33.84299850463867 55.33300018310547,33.268001556396484 C55.43600082397461,33.09199905395508 55.53900146484375,32.91400146484375 55.619998931884766,32.73099899291992 C55.70800018310547,32.547000885009766 55.78799819946289,32.354000091552734 55.86199951171875,32.16299819946289 C56.34700012207031,30.868000030517578 56.472999572753906,29.40999984741211 56.42900085449219,27.871000289916992 C56.422000885009766,27.687000274658203 56.415000915527344,27.503000259399414 56.40700149536133,27.319000244140625 C56.400001525878906,27.135000228881836 56.38600158691406,26.941999435424805 56.37900161743164,26.757999420166016 C56.362998962402344,26.575000762939453 56.34700012207031,26.382999420166016 56.33300018310547,26.198999404907227 C56.32600021362305,26.05900001525879 56.3120002746582,25.91200065612793 56.297000885009766,25.763999938964844 C56.28799819946289,25.7189998626709 56.28200149536133,25.677000045776367 56.28200149536133,25.631999969482422 C56.266998291015625,25.44099998474121 56.244998931884766,25.249000549316406 56.222999572753906,25.058000564575195 C56.20000076293945,24.87299919128418 56.17900085449219,24.680999755859375 56.16400146484375,24.489999771118164 C56.15599822998047,24.3799991607666 56.141998291015625,24.261999130249023 56.12799835205078,24.145999908447266 C56.07699966430664,23.687999725341797 56.02399826049805,23.23200035095215 55.97200012207031,22.774999618530273 C55.97200012207031,22.694000244140625 55.95800018310547,22.61400032043457 55.95100021362305,22.538999557495117 C55.869998931884766,21.743999481201172 55.803001403808594,20.957000732421875 55.77399826049805,20.190000534057617 C55.7599983215332,19.785999298095703 55.75299835205078,19.381000518798828 55.766998291015625,18.97599983215332 C55.766998291015625,18.827999114990234 55.77399826049805,18.68899917602539 55.78099822998047,18.548999786376953 C55.79499816894531,18.268999099731445 55.81800079345703,17.98900032043457 55.84700012207031,17.716999053955078 C55.86199951171875,17.57699966430664 55.87699890136719,17.444000244140625 55.89899826049805,17.31100082397461 C55.89899826049805,17.304000854492188 55.89899826049805,17.304000854492188 55.89899826049805,17.304000854492188 C55.92100143432617,17.172000885009766 55.94300079345703,17.038999557495117 55.97200012207031,16.906999588012695 C55.994998931884766,16.79599952697754 56.016998291015625,16.67799949645996 56.04600143432617,16.566999435424805 C56.07600021362305,16.413000106811523 56.112998962402344,16.266000747680664 56.15599822998047,16.118999481201172 C56.56100082397461,14.697999954223633 57.39400100708008,13.32800006866455 58.38800048828125,11.96500015258789 C58.60900115966797,11.663000106811523 58.8380012512207,11.369000434875488 59.066001892089844,11.067000389099121 C59.17599868774414,10.918999671936035 59.30099868774414,10.765999794006348 59.417999267578125,10.609999656677246 C59.77899932861328,10.161999702453613 60.13999938964844,9.713000297546387 60.49399948120117,9.262999534606934 C60.729000091552734,8.961000442504883 60.972999572753906,8.651000022888184 61.20800018310547,8.342000007629395 C61.797000885009766,7.584000110626221 62.356998443603516,6.817999839782715 62.84299850463867,6.046000003814697 C63.137001037597656,5.573999881744385 63.402000427246094,5.103000164031982 63.63800048828125,4.617000102996826 C63.79199981689453,4.300000190734863 63.93199920654297,3.9769999980926514 64.05000305175781,3.6530001163482666 C64.34400177001953,2.8350000381469727 64.52899932861328,2.003999948501587 64.54399871826172,1.1419999599456787 C64.5510025024414,0.8539999723434448 64.53700256347656,0.5669999718666077 64.4990005493164,0.2800000011920929z"></path></g></g><g transform="matrix(1.0020633935928345,0,0,1.0020633935928345,250,243.61399841308594)" opacity="1" style="display: block;"><g opacity="1" transform="matrix(1,0,0,1,0,0)"><path fill="rgb(203,214,255)" fill-opacity="1" d=" M51.08599853515625,0.9070000052452087 C50.584999084472656,29.121999740600586 27.308000564575195,51.5890007019043 -0.9070000052452087,51.08700180053711 C-29.121000289916992,50.58599853515625 -51.5880012512207,27.30699920654297 -51.08599853515625,-0.9079999923706055 C-50.58599853515625,-29.121999740600586 -27.30699920654297,-51.58700180053711 0.9070000052452087,-51.08700180053711 C29.121999740600586,-50.58599853515625 51.5880012512207,-27.308000564575195 51.08599853515625,0.9070000052452087z"></path></g></g><g transform="matrix(1.0014640092849731,0,0,1.0014640092849731,251.18099975585938,242.1439971923828)" opacity="1" style="display: block;"><g opacity="1" transform="matrix(1,0,0,1,0,0)"><path fill="rgb(255,255,255)" fill-opacity="1" d=" M22.69300079345703,-7.007999897003174 C22.69300079345703,-7.007999897003174 12.980999946594238,-8.508999824523926 12.980999946594238,-8.508999824523926 C10.48900032043457,-8.895999908447266 7.552999973297119,-11.069000244140625 6.454999923706055,-13.340999603271484 C6.454999923706055,-13.340999603271484 2.183000087738037,-22.195999145507812 2.183000087738037,-22.195999145507812 C1.0889999866485596,-24.468000411987305 -0.7379999756813049,-24.482999801635742 -1.8739999532699585,-22.23200035095215 C-1.8739999532699585,-22.23200035095215 -6.306000232696533,-13.456000328063965 -6.306000232696533,-13.456000328063965 C-7.440999984741211,-11.206000328063965 -10.416000366210938,-9.086999893188477 -12.913000106811523,-8.746999740600586 C-12.913000106811523,-8.746999740600586 -22.659000396728516,-7.419000148773193 -22.659000396728516,-7.419000148773193 C-25.158000946044922,-7.078999996185303 -25.738000869750977,-5.3480000495910645 -23.948999404907227,-3.572000026702881 C-23.948999404907227,-3.572000026702881 -16.968000411987305,3.3559999465942383 -16.968000411987305,3.3559999465942383 C-15.175999641418457,5.131999969482422 -14.07800006866455,8.614999771118164 -14.529999732971191,11.097000122070312 C-14.529999732971191,11.097000122070312 -16.277999877929688,20.773000717163086 -16.277999877929688,20.773000717163086 C-16.72599983215332,23.2549991607666 -15.258000373840332,24.343000411987305 -13.015999794006348,23.187999725341797 C-13.015999794006348,23.187999725341797 -4.2729997634887695,18.691999435424805 -4.2729997634887695,18.691999435424805 C-2.0309998989105225,17.538999557495117 1.625,17.57200050354004 3.8440001010894775,18.763999938964844 C3.8440001010894775,18.763999938964844 12.505999565124512,23.420000076293945 12.505999565124512,23.420000076293945 C14.72700023651123,24.61199951171875 16.21500015258789,23.55299949645996 15.8100004196167,21.06399917602539 C15.8100004196167,21.06399917602539 14.234000205993652,11.35200023651123 14.234000205993652,11.35200023651123 C13.831999778747559,8.86299991607666 14.991000175476074,5.401000022888184 16.812999725341797,3.6579999923706055 C16.812999725341797,3.6579999923706055 23.913000106811523,-3.138000011444092 23.913000106811523,-3.138000011444092 C25.733999252319336,-4.881999969482422 25.18400001525879,-6.622000217437744 22.69300079345703,-7.007999897003174z"></path></g></g><g transform="matrix(0.03170638158917427,-0.001643736963160336,0.001643736963160336,0.03170638158917427,366.5190124511719,140.08099365234375)" opacity="1" style="display: block;"><g opacity="1" transform="matrix(1,0,0,1,0,0)"><path fill="rgb(109,134,254)" fill-opacity="1" d=" M4.938000202178955,-4.309000015258789 C4.938000202178955,-4.309000015258789 17.75,-0.8600000143051147 17.75,-0.8600000143051147 C18.628000259399414,-0.6230000257492065 18.628000259399414,0.6230000257492065 17.75,0.8600000143051147 C17.75,0.8600000143051147 4.938000202178955,4.309000015258789 4.938000202178955,4.309000015258789 C4.631999969482422,4.390999794006348 4.390999794006348,4.631999969482422 4.309000015258789,4.938000202178955 C4.309000015258789,4.938000202178955 0.8600000143051147,17.75 0.8600000143051147,17.75 C0.6230000257492065,18.628000259399414 -0.6230000257492065,18.628000259399414 -0.8600000143051147,17.75 C-0.8600000143051147,17.75 -4.309000015258789,4.938000202178955 -4.309000015258789,4.938000202178955 C-4.390999794006348,4.631999969482422 -4.631999969482422,4.390999794006348 -4.938000202178955,4.309000015258789 C-4.938000202178955,4.309000015258789 -17.75,0.8600000143051147 -17.75,0.8600000143051147 C-18.628000259399414,0.6230000257492065 -18.628000259399414,-0.6230000257492065 -17.75,-0.8600000143051147 C-17.75,-0.8600000143051147 -4.938000202178955,-4.309000015258789 -4.938000202178955,-4.309000015258789 C-4.631999969482422,-4.390999794006348 -4.390999794006348,-4.631999969482422 -4.309000015258789,-4.938000202178955 C-4.309000015258789,-4.938000202178955 -0.8600000143051147,-17.75 -0.8600000143051147,-17.75 C-0.6230000257492065,-18.628000259399414 0.6230000257492065,-18.628000259399414 0.8600000143051147,-17.75 C0.8600000143051147,-17.75 4.309000015258789,-4.938000202178955 4.309000015258789,-4.938000202178955 C4.390999794006348,-4.631999969482422 4.631999969482422,-4.390999794006348 4.938000202178955,-4.309000015258789z"></path></g></g><g transform="matrix(0.29206275939941406,-0.28842616081237793,0.28842616081237793,0.29206275939941406,127.9530029296875,244.2760009765625)" opacity="1" style="display: block;"><g opacity="1" transform="matrix(1,0,0,1,0,0)"><path fill="rgb(109,134,254)" fill-opacity="1" d=" M3.1659998893737793,-2.763000011444092 C3.1659998893737793,-2.763000011444092 11.381999969482422,-0.5509999990463257 11.381999969482422,-0.5509999990463257 C11.944999694824219,-0.39899998903274536 11.944999694824219,0.39899998903274536 11.381999969482422,0.5509999990463257 C11.381999969482422,0.5509999990463257 3.1659998893737793,2.763000011444092 3.1659998893737793,2.763000011444092 C2.9700000286102295,2.815999984741211 2.815999984741211,2.9700000286102295 2.763000011444092,3.1659998893737793 C2.763000011444092,3.1659998893737793 0.5509999990463257,11.381999969482422 0.5509999990463257,11.381999969482422 C0.39899998903274536,11.944999694824219 -0.39899998903274536,11.944999694824219 -0.5509999990463257,11.381999969482422 C-0.5509999990463257,11.381999969482422 -2.763000011444092,3.1659998893737793 -2.763000011444092,3.1659998893737793 C-2.815999984741211,2.9700000286102295 -2.9700000286102295,2.815999984741211 -3.1659998893737793,2.763000011444092 C-3.1659998893737793,2.763000011444092 -11.381999969482422,0.5509999990463257 -11.381999969482422,0.5509999990463257 C-11.944999694824219,0.39899998903274536 -11.944999694824219,-0.39899998903274536 -11.381999969482422,-0.5509999990463257 C-11.381999969482422,-0.5509999990463257 -3.1659998893737793,-2.763000011444092 -3.1659998893737793,-2.763000011444092 C-2.9700000286102295,-2.815999984741211 -2.815999984741211,-2.9700000286102295 -2.763000011444092,-3.1659998893737793 C-2.763000011444092,-3.1659998893737793 -0.5509999990463257,-11.381999969482422 -0.5509999990463257,-11.381999969482422 C-0.39899998903274536,-11.944999694824219 0.39899998903274536,-11.944999694824219 0.5509999990463257,-11.381999969482422 C0.5509999990463257,-11.381999969482422 2.763000011444092,-3.1659998893737793 2.763000011444092,-3.1659998893737793 C2.815999984741211,-2.9700000286102295 2.9700000286102295,-2.815999984741211 3.1659998893737793,-2.763000011444092z"></path></g></g><g transform="matrix(-0.618267834186554,-0.2898079752922058,0.2898079752922058,-0.618267834186554,155.5189971923828,164.08099365234375)" opacity="1" style="display: block;"><g opacity="1" transform="matrix(1,0,0,1,0,0)"><path fill="rgb(109,134,254)" fill-opacity="1" d=" M4.938000202178955,-4.309000015258789 C4.938000202178955,-4.309000015258789 17.75,-0.8600000143051147 17.75,-0.8600000143051147 C18.628000259399414,-0.6230000257492065 18.628000259399414,0.6230000257492065 17.75,0.8600000143051147 C17.75,0.8600000143051147 4.938000202178955,4.309000015258789 4.938000202178955,4.309000015258789 C4.631999969482422,4.390999794006348 4.390999794006348,4.631999969482422 4.309000015258789,4.938000202178955 C4.309000015258789,4.938000202178955 0.8600000143051147,17.75 0.8600000143051147,17.75 C0.6230000257492065,18.628000259399414 -0.6230000257492065,18.628000259399414 -0.8600000143051147,17.75 C-0.8600000143051147,17.75 -4.309000015258789,4.938000202178955 -4.309000015258789,4.938000202178955 C-4.390999794006348,4.631999969482422 -4.631999969482422,4.390999794006348 -4.938000202178955,4.309000015258789 C-4.938000202178955,4.309000015258789 -17.75,0.8600000143051147 -17.75,0.8600000143051147 C-18.628000259399414,0.6230000257492065 -18.628000259399414,-0.6230000257492065 -17.75,-0.8600000143051147 C-17.75,-0.8600000143051147 -4.938000202178955,-4.309000015258789 -4.938000202178955,-4.309000015258789 C-4.631999969482422,-4.390999794006348 -4.390999794006348,-4.631999969482422 -4.309000015258789,-4.938000202178955 C-4.309000015258789,-4.938000202178955 -0.8600000143051147,-17.75 -0.8600000143051147,-17.75 C-0.6230000257492065,-18.628000259399414 0.6230000257492065,-18.628000259399414 0.8600000143051147,-17.75 C0.8600000143051147,-17.75 4.309000015258789,-4.938000202178955 4.309000015258789,-4.938000202178955 C4.390999794006348,-4.631999969482422 4.631999969482422,-4.390999794006348 4.938000202178955,-4.309000015258789z"></path></g></g></g></svg>
